<svg height="58pt" preserveAspectRatio="xMidYMid meet" viewBox="0 0 58 58" width="58pt" xmlns="http://www.w3.org/2000/svg"><g transform="matrix(.1 0 0 -.1 0 58)"><path d="m522 533c-26-3-32-8-27-22 7-23-49-56-100-57-46-1-102 20-128 47-10 10-21 19-25 19-17-1-35-20-37-38-2-25-112-151-142-163-30-11-32-55-3-64 26-8 52 12 48 36-4 21 105 147 138 159 27 11 100-16 123-44 17-20 50-21 57-2 8 22 81 66 98 60 10-4 21 7 36 35 14 28 16 40 8 39-7 0-28-3-46-5z"/><path d="m180 190v-161l63 3 62 3v155 155l-62 3-63 3zm100 0v-130h-40-40v130 130h40 40z"/><path d="m347 334c-4-4-7-74-7-156v-148h65 66l-3 153-3 152-55 3c-31 2-59 0-63-4zm93-149v-125h-35-35v125 125h35 35z"/><path d="m14 207c-3-8-4-49-2-93l3-79 63-3 63-3-3 93-3 93-58 3c-42 2-59-1-63-11zm106-82v-65h-40-40v65 65h40 40z"/></g></svg>