<svg height="42" viewBox="0 0 42 42" width="42" xmlns="http://www.w3.org/2000/svg"><path d="m33.651 32.991h-25.092c-1.08 0-2.388-.134-2.911-1.174-.594-1.183.286-2.365 1.4-3.863 1.239-1.666 3.193-3.814 3.193-6.087v-7.359c0-6.341 4.705-11.5 10.766-11.5s10.8 5.158 10.8 11.5v7.359c0 2.311 1.8 4.577 3.116 6.177 1.238 1.5 2.132 2.592 1.573 3.777s-2.159 1.17-2.845 1.17zm-25.528-2.413c.119.008.264.013.436.013h25.092q.128 0 .236 0c-.242-.323-.554-.7-.814-1.02-1.546-1.88-3.662-4.529-3.662-7.7v-7.363c0-5.018-3.666-9.1-8.4-9.1s-8.366 4.082-8.366 9.1v7.359c0 3.067-2.295 5.672-3.668 7.519-.277.373-.622.832-.854 1.192zm9.465 1.222a3.615 3.615 0 0 0 -.214 1.185 3.653 3.653 0 1 0 7.306 0 3.615 3.615 0 0 0 -.214-1.185h2.454a6.012 6.012 0 1 1 -11.785 0h2.451z" fill="#fff" fill-rule="evenodd"/></svg>