<?xml version="1.0" encoding="UTF-8" standalone="no"?>
<svg
   xmlns:dc="http://purl.org/dc/elements/1.1/"
   xmlns:cc="http://creativecommons.org/ns#"
   xmlns:rdf="http://www.w3.org/1999/02/22-rdf-syntax-ns#"
   xmlns:svg="http://www.w3.org/2000/svg"
   xmlns="http://www.w3.org/2000/svg"
   id="svg7"
   version="1.1"
   viewBox="0 0 42 42"
   height="42"
   width="42">
  <metadata
     id="metadata11">
    <rdf:RDF>
      <cc:Work
         rdf:about="">
        <dc:format>image/svg+xml</dc:format>
        <dc:type
           rdf:resource="http://purl.org/dc/dcmitype/StillImage" />
      </cc:Work>
    </rdf:RDF>
  </metadata>
  <defs
     id="defs4">
    <style
       id="style2">
      .cls-1 {
        fill: #fff;
        fill-rule: evenodd;
      }
    </style>
  </defs>
  <path
     d="M33.651,32.991H8.559c-1.08,0-2.388-.134-2.911-1.174-0.594-1.183.286-2.365,1.4-3.863,1.239-1.666,3.193-3.814,3.193-6.087V14.508c0-6.341,4.705-11.5,10.766-11.5s10.8,5.158,10.8,11.5v7.359c0,2.311,1.8,4.577,3.116,6.177,1.238,1.5,2.132,2.592,1.573,3.777S34.337,32.991,33.651,32.991ZM8.123,30.578c0.119,0.008.264,0.013,0.436,0.013H33.651q0.128,0,.236,0c-0.242-.323-0.554-0.7-0.814-1.02-1.546-1.88-3.662-4.529-3.662-7.7V14.508c0-5.018-3.666-9.1-8.4-9.1s-8.366,4.082-8.366,9.1v7.359c0,3.067-2.295,5.672-3.668,7.519C8.7,29.759,8.355,30.218,8.123,30.578ZM17.588,31.8a3.615,3.615,0,0,0-.214,1.185,3.653,3.653,0,1,0,7.306,0,3.615,3.615,0,0,0-.214-1.185h2.454a6.012,6.012,0,1,1-11.785,0h2.451Z"
     class="cls-1"
     id="Bell" />
</svg>
