<svg height="42" viewBox="0 0 42 42" width="42" xmlns="http://www.w3.org/2000/svg"><path d="m37.8 40.2h-33.6a2.4 2.4 0 0 1 -2.4-2.4v-30a2.4 2.4 0 0 1 2.4-2.4h33.6a2.4 2.4 0 0 1 2.4 2.4v30a2.4 2.4 0 0 1 -2.4 2.4zm0-32.4h-33.6v30h33.6v-30zm-21.608 1.209a1.2 1.2 0 0 1 -1.2 1.2 1.2 1.2 0 0 1 -1.2-1.2v-6a1.2 1.2 0 0 1 1.2-1.2 1.2 1.2 0 0 1 1.2 1.2zm12 0a1.2 1.2 0 0 1 -1.2 1.2 1.2 1.2 0 0 1 -1.2-1.2v-6a1.2 1.2 0 0 1 1.2-1.2 1.2 1.2 0 0 1 1.2 1.2zm1.208 7.191h2.4a1.2 1.2 0 0 1 1.2 1.2v2.4a1.2 1.2 0 0 1 -1.2 1.2h-2.4a1.2 1.2 0 0 1 -1.2-1.2v-2.4a1.2 1.2 0 0 1 1.2-1.2zm0 9.6h2.4a1.2 1.2 0 0 1 1.2 1.2v2.4a1.2 1.2 0 0 1 -1.2 1.2h-2.4a1.2 1.2 0 0 1 -1.2-1.2v-2.4a1.2 1.2 0 0 1 1.2-1.2zm-9.6 0h2.4a1.2 1.2 0 0 1 1.2 1.2v2.4a1.2 1.2 0 0 1 -1.2 1.2h-2.4a1.2 1.2 0 0 1 -1.2-1.2v-2.4a1.2 1.2 0 0 1 1.2-1.2zm0-9.6h2.4a1.2 1.2 0 0 1 1.2 1.2v2.4a1.2 1.2 0 0 1 -1.2 1.2h-2.4a1.2 1.2 0 0 1 -1.2-1.2v-2.4a1.2 1.2 0 0 1 1.2-1.2zm-9.6 0h2.4a1.2 1.2 0 0 1 1.2 1.2v2.4a1.2 1.2 0 0 1 -1.2 1.2h-2.4a1.2 1.2 0 0 1 -1.2-1.2v-2.4a1.2 1.2 0 0 1 1.2-1.2zm0 9.6h2.4a1.2 1.2 0 0 1 1.2 1.2v2.4a1.2 1.2 0 0 1 -1.2 1.2h-2.4a1.2 1.2 0 0 1 -1.2-1.2v-2.4a1.2 1.2 0 0 1 1.2-1.2z" fill="#1b1b1b" fill-rule="evenodd"/></svg>