<svg height="42" viewBox="0 0 42 42" width="42" xmlns="http://www.w3.org/2000/svg" xmlns:xlink="http://www.w3.org/1999/xlink"><filter id="a" filterUnits="userSpaceOnUse" height="36" width="36" x="3.5" y="3.5"><feFlood flood-color="#ababab" result="flood"/><feComposite in2="SourceGraphic" operator="in" result="composite"/><feBlend in2="SourceGraphic" result="blend"/></filter><path d="m21.5 5.75a15.768 15.768 0 1 1 -15.75 15.75 15.768 15.768 0 0 1 15.75-15.75m0-2.25a18 18 0 1 0 18 18 18 18 0 0 0 -18-18zm0 5.625a1.125 1.125 0 0 1 1.125 1.125v11.25a1.125 1.125 0 0 1 -2.25 0v-11.25a1.125 1.125 0 0 1 1.125-1.125zm6.435 18.819a1.124 1.124 0 0 1 -1.591 0l-5.568-5.568a1.125 1.125 0 1 1 1.591-1.591l5.569 5.569a1.125 1.125 0 0 1 -.001 1.59z" fill="#1b1b1b" fill-rule="evenodd" filter="url(#a)"/></svg>