<svg height="58pt" preserveAspectRatio="xMidYMid meet" viewBox="0 0 58 58" width="58pt" xmlns="http://www.w3.org/2000/svg"><path d="m73 450c-22-9-23-14-23-145 0-187-16-175 244-175 173 0 207 2 220 16 13 12 16 41 16 153 0 93-4 141-12 149-14 14-410 16-445 2zm416-24c-15-15-195-156-199-156s-184 141-199 156c-2 2 87 4 199 4s201-2 199-4zm-305-111c51-41 99-75 105-75 7 0 55 34 106 75 52 41 97 75 100 75s5-52 5-115v-115l-207 2-208 3-3 113c-1 61 0 112 3 112s48-34 99-75z" transform="matrix(.1 0 0 -.1 0 58)"/></svg>