<svg height="58pt" preserveAspectRatio="xMidYMid meet" viewBox="0 0 58 58" width="58pt" xmlns="http://www.w3.org/2000/svg"><g transform="matrix(.1 0 0 -.1 0 58)"><path d="m228 528c-20-5-54-24-75-43-34-29-39-31-50-16-19 26-24 7-8-32l15-36 45 16c52 17 60 28 14 19-31-6-31-5-17 17 57 84 214 87 291 4 38-41 58-45 38-8-38 69-153 106-253 79z"/><path d="m55 360c-17-19-17-47 0-91 4-12-3-20-24-29-19-8-31-20-31-31 0-17 9-19 95-19s95 2 95 19c0 11-12 23-30 31-24 10-28 15-20 30 15 28 12 77-6 94-21 22-57 20-79-4z"/><path d="m448 369c-20-11-25-68-8-99 8-15 4-20-20-30-18-8-30-20-30-31 0-17 9-19 95-19s95 2 95 19c0 11-12 23-31 31-21 9-28 17-24 29 18 45 17 69-4 90-23 23-46 26-73 10z"/><path d="m436 154c-52-19-60-29-17-20 33 6 33 6 19-17-57-84-214-87-291-4-38 41-58 45-38 8 19-34 74-70 129-82 72-17 146 0 200 47 37 31 42 33 51 17 17-31 23-7 7 31-8 20-16 36-18 35-2 0-21-7-42-15z"/></g></svg>