<svg height="58pt" preserveAspectRatio="xMidYMid meet" viewBox="0 0 58 58" width="58pt" xmlns="http://www.w3.org/2000/svg"><g transform="matrix(.1 0 0 -.1 0 58)"><path d="m227 516c-60-16-115-60-147-117-31-56-34-155-6-209 47-89 119-134 216-134s169 44 216 134c29 56 25 155-10 214-34 59-92 101-157 115-59 13-51 13-112-3zm124-27c118-36 181-173 130-284-61-132-229-166-335-67-159 149-5 413 205 351z"/><path d="m237 402c-10-10-17-26-17-35 0-24 27-21 33 4 4 16 12 20 39 17 47-4 51-43 9-91-33-37-40-67-16-67 8 0 15 4 15 9 0 4 14 25 30 46 35 44 40 93 12 118-25 23-85 22-105-1z"/><path d="m270 175c0-8 7-15 15-15s15 7 15 15-7 15-15 15-15-7-15-15z"/></g></svg>