<svg height="42" viewBox="0 0 42 42" width="42" xmlns="http://www.w3.org/2000/svg"><path d="m24.993 39.5c-10.739 0-10.822-.447-12.152-1.455-.706-.534-2.037-.9-6.9-1.221a1.261 1.261 0 0 1 -.913-.434 17.262 17.262 0 0 1 -2.528-9.396c0-5.621 1.739-8.184 1.813-8.3a1.18 1.18 0 0 1 1-.558c3.992 0 9.526-5.122 13.247-14.065.64-1.55.774-2.571 3.14-2.571a4.582 4.582 0 0 1 3.6 2.209c1.526 2.535.751 7.982.034 10.893 2.437-.02 6.849-.053 8.948-.053 2.921 0 4.852 1.75 4.911 4.309a7 7 0 0 1 -.335 2.481 4.41 4.41 0 0 1 1.508 2.868 5.111 5.111 0 0 1 -1.679 3.551 4.922 4.922 0 0 1 .433 1.837 4.88 4.88 0 0 1 -2.358 3.628 6.9 6.9 0 0 1 -.03 2.177c-.639 2.923-4.896 4.1-11.739 4.1zm-18.424-5.089c4.235.352 6.5.829 7.693 1.733.924.7.782.977 10.731.977 3.035 0 8.97-.128 9.424-2.221a2.138 2.138 0 0 0 -.7-1.667 1.207 1.207 0 0 1 .613-1.551c.009 0 2.368-.855 2.422-2.179a1.867 1.867 0 0 0 -.557-1.378 1.215 1.215 0 0 1 .3-1.639c.006 0 1.535-.936 1.5-2.206a2.612 2.612 0 0 0 -1.395-1.743 1.2 1.2 0 0 1 -.361-1.76 3.994 3.994 0 0 0 .579-1.86c-.044-1.928-2.106-1.988-2.548-1.988-2.981 0-10.636.031-10.636.031a1.167 1.167 0 0 1 -.992-.526 1.259 1.259 0 0 1 -.108-1.122c1.154-3.342 1.8-8.585.728-10.376a1.438 1.438 0 0 0 -1.562-1.056c-.164 0-.554.13-.96 1.1-3.951 9.5-9.848 14.988-14.679 15.484a15.4 15.4 0 0 0 -1.2 6.525 15.868 15.868 0 0 0 1.708 7.422z" fill="#767676" fill-rule="evenodd"/></svg>