<svg height="58pt" preserveAspectRatio="xMidYMid meet" viewBox="0 0 58 58" width="58pt" xmlns="http://www.w3.org/2000/svg"><g transform="matrix(.1 0 0 -.1 0 58)"><path d="m32 528c-17-17-17-459 0-476 13-13 291-18 322-6 22 9 24 154 1 154-10 0-15-16-17-62l-3-63-129-3c-86-2-133 1-142 9-20 17-20 401 0 418 9 8 56 11 142 9l129-3 3-62c2-47 7-63 17-63 23 0 21 145-1 154-31 12-309 7-322-6z"/><path d="m430 383c0-4 14-22 32-40l32-33h-146c-97 0-149-4-154-11-13-22 23-29 160-29h140l-33-34c-18-19-30-39-27-45 11-16 31-3 76 50l41 49-43 50c-37 42-78 65-78 43z"/></g></svg>