<svg height="42" viewBox="0 0 42 42" width="42" xmlns="http://www.w3.org/2000/svg"><path d="m21.99 7.124c3.611 0 7.44 3.041 7.44 5.311v5.313c0 2.045-.85 5.958-3.131 7.754a2.126 2.126 0 0 0 .428 3.6l9.253 4.388a1.187 1.187 0 0 1 .887 1.307v2.075h-29.753v-2.153a1.281 1.281 0 0 1 .886-1.227l9.338-4.406a2.126 2.126 0 0 0 .442-3.589c-2.209-1.773-3.238-5.672-3.238-7.748v-5.314c0-2.221 3.868-5.311 7.446-5.311m.002-2.124c-4.7 0-9.573 3.918-9.573 7.438v5.313c0 2.321 1.06 7.019 4.033 9.406l-9.338 4.404s-2.125.947-2.125 2.125v3.191a2.125 2.125 0 0 0 2.125 2.123h29.755a2.125 2.125 0 0 0 2.125-2.125v-3.189c0-1.249-2.125-2.125-2.125-2.125l-9.253-4.388c2.946-2.318 3.942-6.872 3.942-9.424v-5.314c0-3.519-4.872-7.435-9.566-7.435z" fill="#1b1b1b" fill-rule="evenodd"/></svg>