<svg height="58pt" preserveAspectRatio="xMidYMid meet" viewBox="0 0 58 58" width="58pt" xmlns="http://www.w3.org/2000/svg"><path d="m345 523c-79-17-109-53-108-128l1-50-95-97c-102-105-106-115-60-165 40-45 70-32 176 71 86 84 99 93 122 86 80-23 149 47 149 152 0 41-15 42-58 4l-39-35-32 33c-36 37-34 52 8 90s13 56-64 39zm35-30c0-4-12-20-27-35l-27-28 49-50c27-28 52-50 56-50s21 12 38 26l31 26v-24c0-12-9-37-20-55-22-37-74-52-110-33-20 11-30 4-125-89-56-56-106-101-110-101-12 0-55 42-55 53 0 6 43 54 95 108l95 98-6 45c-10 69 27 113 94 115 12 1 22-2 22-6z" transform="matrix(.1 0 0 -.1 0 58)"/></svg>